<?xml version="1.0" encoding="UTF-8"?>
<svg id="Capa_2" data-name="Capa 2" xmlns="http://www.w3.org/2000/svg" viewBox="0 0 486.94 123.54">
  <defs>
    <style>
      .cls-1, .cls-2 {
        fill: #fff;
      }

      .cls-2 {
        stroke: #101010;
        stroke-miterlimit: 10;
        stroke-width: .63px;
      }
    </style>
  </defs>
  <g id="Capa_1-2" data-name="Capa 1">
    <g>
      <g>
        <path class="cls-2" d="M40.81,79.27c-1.57,0-3.59-.04-6.07-.1-2.48-.07-5.03-.14-7.64-.21-2.61-.07-5.01-.1-7.18-.1-1.57,0-3.61.02-6.14.05-2.53.04-5.03.07-7.51.1-2.48.03-4.46.05-5.94.05,0-.49.04-1.05.13-1.67.09-.63.26-1.18.52-1.67,3.74-.35,6.47-.66,8.16-.94,1.7-.28,2.89-.92,3.59-1.93.7-1.01,1.31-2.7,1.83-5.07l12.02-49.55c.35-1.32.61-2.4.78-3.24.17-.84.26-1.57.26-2.2,0-1.6-.76-2.56-2.29-2.88-1.52-.31-4.55-.61-9.08-.89.17-1.11.44-2.23.78-3.35,1.65,0,3.66.02,6.01.05,2.35.04,4.7.07,7.05.1,2.35.04,4.31.05,5.88.05,1.13,0,2.81-.02,5.03-.05,2.22-.03,4.38-.05,6.47-.05h4.44c3.57,0,7.07.25,10.51.73,3.44.49,6.53,1.31,9.27,2.46,2.74,1.15,4.94,2.75,6.6,4.81,1.65,2.06,2.48,4.69,2.48,7.89,0,3.97-1.22,7.23-3.66,9.77-2.44,2.55-5.53,4.53-9.27,5.96-3.75,1.43-7.62,2.53-11.63,3.29v.21c3.48.35,6.86,1.15,10.12,2.4s5.96,3.1,8.1,5.54c2.13,2.44,3.2,5.65,3.2,9.62s-1.13,7.41-3.4,10.09c-2.27,2.68-5.22,4.81-8.88,6.38s-7.64,2.68-11.95,3.35c-4.31.66-8.51.99-12.61.99ZM34.8,43.62l-7.31,30.42c2,.35,4.27.61,6.79.78,2.52.17,4.61.26,6.27.26,6.88,0,12.21-1.55,16-4.65,3.79-3.1,5.68-7.3,5.68-12.6,0-3.69-.89-6.59-2.68-8.68-1.79-2.09-4.27-3.57-7.45-4.44-3.18-.87-6.86-1.31-11.04-1.31h-2.74c-1.22,0-2.4.07-3.53.21ZM42.9,10.16l-7.05,28.96c1.22.07,2.48.1,3.79.1h3c7.58,0,13.37-1.53,17.37-4.6,4-3.07,6.01-7.11,6.01-12.13,0-4.74-1.61-8-4.83-9.77-3.22-1.78-7.18-2.67-11.89-2.67h-2.61c-1.13,0-2.4.04-3.79.1Z"/>
        <path class="cls-2" d="M141.78,37.35c0,2.72-1.09,5.14-3.27,7.27-2.18,2.13-5.12,3.96-8.82,5.49-3.7,1.53-7.82,2.79-12.34,3.76-4.53.98-9.14,1.67-13.85,2.09-.52,2.16-.78,4.18-.78,6.06,0,3.49.96,6.26,2.87,8.31,1.91,2.06,5.01,3.08,9.27,3.08,3.74,0,7.27-.8,10.58-2.4,3.31-1.6,6.22-3.69,8.75-6.27,1.39.63,2.39,1.29,3,1.99-2.96,4.04-6.58,7.3-10.84,9.77-4.27,2.47-9.36,3.71-15.28,3.71-6.88,0-12.3-1.65-16.26-4.97-3.96-3.31-5.94-7.75-5.94-13.33,0-3.9.96-7.8,2.87-11.71,1.91-3.9,4.59-7.47,8.03-10.72,3.44-3.24,7.53-5.84,12.28-7.79,4.75-1.95,9.91-2.93,15.48-2.93,4.88,0,8.47.77,10.78,2.3,2.31,1.53,3.46,3.62,3.46,6.27ZM104.55,52.3c4.09-.42,8.03-1.2,11.82-2.35,3.79-1.15,6.9-2.68,9.34-4.6,2.44-1.92,3.66-4.27,3.66-7.06,0-1.53-.44-2.77-1.31-3.71-.87-.94-2.27-1.41-4.18-1.41-2.7,0-5.31.92-7.84,2.77-2.53,1.85-4.79,4.23-6.79,7.16-2,2.93-3.57,6-4.7,9.2Z"/>
        <path class="cls-2" d="M176.79,67.14c1.13.63,2.13,1.32,3,2.09-2.96,3.14-6.16,5.75-9.6,7.84-3.44,2.09-7.25,3.14-11.43,3.14-3.22,0-5.57-.65-7.05-1.93-1.48-1.29-2.22-3.01-2.22-5.18,0-.77.09-1.6.26-2.51.17-.91.39-1.81.65-2.72l13.72-53.42c.26-.98.48-1.86.65-2.67.17-.8.26-1.45.26-1.93,0-1.39-.76-2.25-2.29-2.56-1.52-.31-4.38-.5-8.56-.57-.09-.49-.15-.96-.2-1.41-.05-.45-.02-.92.07-1.41,4.7-.28,9.29-.68,13.78-1.2,4.48-.52,8.34-1.31,11.56-2.35l1.7.73c-.87,2.58-1.76,5.4-2.68,8.47-.91,3.07-1.85,6.52-2.81,10.35l-12.15,47.36c-.09.49-.24,1.13-.46,1.93-.22.8-.33,1.55-.33,2.25,0,.63.17,1.15.52,1.57.35.42.96.63,1.83.63,1.48,0,3.35-.63,5.62-1.88,2.26-1.25,4.31-2.79,6.14-4.6Z"/>
        <path class="cls-2" d="M270.45,80.21c-3.22,0-5.6-.65-7.12-1.93-1.52-1.29-2.29-2.91-2.29-4.86,0-1.39.33-3.24.98-5.54.65-2.3,1.44-4.83,2.35-7.58.91-2.75,1.85-5.49,2.81-8.21.96-2.72,1.76-5.21,2.42-7.47.65-2.26.98-4.06.98-5.38,0-1.11-.28-2.13-.85-3.03-.57-.91-1.76-1.36-3.59-1.36-2.09,0-4.7.82-7.84,2.46-3.13,1.64-6.2,4.29-9.21,7.95-3,3.66-5.42,8.56-7.25,14.69l-5.62,19.03h-13.06l10.45-35.44c.35-1.11.61-2.09.78-2.93.17-.84.26-1.6.26-2.3,0-1.11-.26-1.97-.78-2.56-.52-.59-1.57-.89-3.13-.89-2.7,0-5.64.91-8.82,2.72-3.18,1.81-6.16,4.57-8.95,8.26-2.79,3.69-5.05,8.4-6.79,14.11l-5.62,19.03h-13.06l10.71-37.11c.61-2.02.92-3.35.92-3.97,0-1.67-.78-2.51-2.35-2.51-1.22,0-2.81.54-4.77,1.62-1.96,1.08-3.9,2.42-5.81,4.03-.61-.35-1.16-.7-1.63-1.05-.48-.35-.94-.73-1.37-1.15,3.31-3.21,6.84-5.65,10.58-7.32,3.74-1.67,7.23-2.51,10.45-2.51,3.05,0,5.18.63,6.4,1.88,1.22,1.25,1.83,2.68,1.83,4.29,0,.56-.11,1.41-.33,2.56-.22,1.15-.5,2.42-.85,3.82h.39c3.13-3.9,6.83-7,11.1-9.3,4.27-2.3,8.58-3.45,12.93-3.45,3.31,0,6.09.68,8.36,2.04,2.26,1.36,3.4,3.43,3.4,6.22,0,.49-.02,1.05-.07,1.67-.04.63-.2,1.57-.46,2.82h.39c3.31-4.11,7.1-7.27,11.36-9.46,4.27-2.2,8.53-3.29,12.8-3.29,3.83,0,6.86.84,9.08,2.51s3.33,3.9,3.33,6.69c0,1.53-.33,3.52-.98,5.96-.65,2.44-1.46,5.07-2.42,7.89-.96,2.82-1.92,5.58-2.87,8.26-.96,2.68-1.76,5.05-2.42,7.11-.65,2.06-.98,3.5-.98,4.34,0,.49.17.96.52,1.41.35.45.96.68,1.83.68,1.48,0,3.35-.63,5.62-1.88,2.26-1.25,4.31-2.79,6.14-4.6,1.13.63,2.13,1.32,3,2.09-2.96,3.14-6.16,5.75-9.6,7.84-3.44,2.09-7.21,3.14-11.3,3.14Z"/>
        <path class="cls-2" d="M357.18,49.26c0,3.55-.72,7.15-2.16,10.77-1.44,3.63-3.59,6.95-6.47,9.98-2.87,3.03-6.44,5.49-10.71,7.37-4.27,1.88-9.19,2.82-14.76,2.82-4.7,0-8.64-.66-11.82-1.99-3.18-1.32-5.73-3.03-7.64-5.12-1.92-2.09-3.29-4.37-4.11-6.85-.83-2.47-1.24-4.86-1.24-7.16,0-3,.67-6.24,2.02-9.72,1.35-3.48,3.42-6.8,6.2-9.93,2.79-3.14,6.36-5.7,10.71-7.68,4.35-1.99,9.54-2.98,15.54-2.98,5.66,0,10.3.92,13.91,2.77,3.61,1.85,6.27,4.32,7.97,7.42,1.7,3.1,2.55,6.53,2.55,10.3ZM343.33,47.59c0-4.32-.85-7.89-2.55-10.72-1.7-2.82-4.55-4.23-8.56-4.23-3.13,0-5.94.84-8.43,2.51-2.48,1.67-4.59,3.9-6.34,6.69-1.74,2.79-3.07,5.84-3.98,9.15-.91,3.31-1.37,6.64-1.37,9.98,0,4.32.89,7.96,2.68,10.92,1.78,2.96,4.72,4.44,8.82,4.44,3.22,0,6.05-.87,8.49-2.61,2.44-1.74,4.48-4.04,6.14-6.9,1.65-2.86,2.92-5.98,3.79-9.36.87-3.38,1.31-6.67,1.31-9.88Z"/>
        <path class="cls-2" d="M387.35,59.93l-5.49,19.03h-13.06l10.71-37.11c.61-2.02.92-3.35.92-3.97,0-1.67-.78-2.51-2.35-2.51-1.22,0-2.81.54-4.77,1.62-1.96,1.08-3.9,2.42-5.81,4.03-.61-.35-1.16-.7-1.63-1.05-.48-.35-.94-.73-1.37-1.15,3.48-3.28,7.07-5.73,10.78-7.37,3.7-1.64,7.16-2.46,10.38-2.46,2.96,0,5.05.59,6.27,1.78,1.22,1.19,1.83,2.58,1.83,4.18,0,.84-.15,1.83-.46,2.98-.31,1.15-.59,2.35-.85,3.61h.39c3.31-4.25,7.2-7.44,11.69-9.57,4.48-2.13,8.82-3.19,13-3.19s7.38.92,9.6,2.77c2.22,1.85,3.33,4.1,3.33,6.74,0,1.46-.33,3.42-.98,5.85-.65,2.44-1.46,5.05-2.42,7.84-.96,2.79-1.92,5.52-2.87,8.21-.96,2.68-1.76,5.05-2.42,7.11-.65,2.06-.98,3.5-.98,4.34,0,.49.17.94.52,1.36.35.42.96.63,1.83.63,1.48,0,3.35-.63,5.62-1.88,2.26-1.25,4.31-2.79,6.14-4.6,1.13.63,2.13,1.32,3,2.09-2.96,3.14-6.16,5.75-9.6,7.84-3.44,2.09-7.25,3.14-11.43,3.14-3.22,0-5.57-.65-7.05-1.93-1.48-1.29-2.22-2.91-2.22-4.86,0-1.39.33-3.24.98-5.54.65-2.3,1.46-4.81,2.42-7.53.96-2.72,1.89-5.42,2.81-8.1.91-2.68,1.7-5.14,2.35-7.37.65-2.23.98-3.97.98-5.23,0-1.39-.39-2.54-1.18-3.45-.78-.91-2.18-1.36-4.18-1.36-2.53,0-5.36.87-8.49,2.61-3.13,1.74-6.12,4.39-8.95,7.95-2.83,3.55-5.07,8.12-6.73,13.7l-.26.84Z"/>
        <path class="cls-2" d="M485.58,35.78h-15.02l-8.23,28.65c-.78,2.72-1.18,4.67-1.18,5.85,0,1.12.3,2,.91,2.67.61.66,1.7.99,3.27.99,1.83,0,4-.61,6.53-1.83,2.52-1.22,4.79-2.84,6.79-4.86,1.13.63,2.13,1.32,3,2.09-3.05,3.42-6.53,6.1-10.45,8.05-3.92,1.95-7.97,2.93-12.15,2.93-2.79,0-4.99-.45-6.6-1.36-1.61-.91-2.72-2-3.33-3.29-.61-1.29-.91-2.49-.91-3.61,0-.77.09-1.71.26-2.82.17-1.11.48-2.47.91-4.08l8.1-29.38h-9.8c0-.56.04-1.08.13-1.57.09-.49.26-.98.52-1.46l10.32-1.25c.61-2.02,1.28-4.3,2.02-6.85.74-2.54,1.41-4.97,2.02-7.27,2.09-.14,4.25-.3,6.47-.47,2.22-.17,4.38-.4,6.47-.68l.39.42c-.61,2.09-1.22,4.2-1.83,6.32-.61,2.13-1.39,4.86-2.35,8.21h14.76c0,.84-.09,1.62-.26,2.35-.18.73-.44,1.48-.78,2.25Z"/>
      </g>
      <g>
        <path class="cls-1" d="M70.78,101.14h7.59c6.1,0,10.31,4.24,10.31,10.82s-4.11,11.26-10.38,11.26h-7.53v-22.08ZM73.03,121.23h5.03c5.54,0,8.22-3.92,8.22-9.17,0-4.62-2.44-8.92-8.22-8.92h-5.03v18.09Z"/>
        <path class="cls-1" d="M116.27,112.59h-11.14v8.64h12.21l-.32,1.99h-14.14v-22.08h13.92v1.99h-11.67v7.47h11.14v1.99Z"/>
        <path class="cls-1" d="M131.92,117.18c.63,2.82,2.5,4.43,5.95,4.43,3.76,0,5.22-1.83,5.22-4.11s-1.07-3.76-5.76-4.9c-4.9-1.23-6.83-2.85-6.83-6.01s2.25-5.76,7.09-5.76,7.15,3.01,7.43,5.79h-2.31c-.47-2.18-1.87-3.86-5.22-3.86-2.97,0-4.62,1.36-4.62,3.67s1.36,3.13,5.35,4.11c6.26,1.55,7.28,4.02,7.28,6.77,0,3.38-2.5,6.17-7.75,6.17-5.54,0-7.72-3.13-8.16-6.29h2.34Z"/>
        <path class="cls-1" d="M161.78,101.14v22.08h-2.25v-22.08h2.25Z"/>
        <path class="cls-1" d="M194.74,123.22h-1.8c-.13-.32-.19-1.39-.22-3.29-.89,1.55-2.69,3.57-7.02,3.57-6.36,0-9.65-4.84-9.65-11.13s3.51-11.55,10.09-11.55c4.93,0,8.1,2.63,8.76,6.64h-2.25c-.85-2.85-2.85-4.68-6.58-4.68-5.35,0-7.66,4.21-7.66,9.49,0,4.81,2.25,9.24,7.47,9.24s6.67-3.45,6.67-7.81v-.25h-6.74v-1.99h8.92v11.77Z"/>
        <path class="cls-1" d="M209.8,123.22v-22.08h3.13c3.32,5.25,10.85,16.96,12.18,19.36h.03c-.19-3.04-.16-6.39-.16-10v-9.36h2.18v22.08h-2.91c-3.13-4.97-10.85-17.33-12.34-19.8h-.06c.16,2.72.16,6.2.16,10.19v9.62h-2.21Z"/>
        <path class="cls-1" d="M261.04,117.18c.63,2.82,2.5,4.43,5.95,4.43,3.76,0,5.22-1.83,5.22-4.11s-1.08-3.76-5.76-4.9c-4.9-1.23-6.83-2.85-6.83-6.01s2.25-5.76,7.09-5.76,7.15,3.01,7.43,5.79h-2.31c-.47-2.18-1.87-3.86-5.22-3.86-2.97,0-4.62,1.36-4.62,3.67s1.36,3.13,5.35,4.11c6.26,1.55,7.28,4.02,7.28,6.77,0,3.38-2.5,6.17-7.75,6.17-5.54,0-7.72-3.13-8.16-6.29h2.34Z"/>
        <path class="cls-1" d="M293.14,103.13h-7.28v-1.99h16.86v1.99h-7.31v20.09h-2.28v-20.09Z"/>
        <path class="cls-1" d="M318.04,101.14v13.35c0,5.57,3.1,7.02,6.1,7.02,3.51,0,6.07-1.52,6.07-7.02v-13.35h2.28v13.22c0,7.02-3.8,9.11-8.41,9.11s-8.35-2.28-8.35-8.86v-13.48h2.31Z"/>
        <path class="cls-1" d="M347.96,101.14h7.59c6.1,0,10.31,4.24,10.31,10.82s-4.11,11.26-10.38,11.26h-7.53v-22.08ZM350.2,121.23h5.03c5.54,0,8.22-3.92,8.22-9.17,0-4.62-2.44-8.92-8.22-8.92h-5.03v18.09Z"/>
        <path class="cls-1" d="M382.31,101.14v22.08h-2.25v-22.08h2.25Z"/>
        <path class="cls-1" d="M416.72,112.02c0,6.07-3.32,11.51-10.19,11.51-6.36,0-9.96-5.03-9.96-11.36s3.57-11.36,10.19-11.36c6.14,0,9.96,4.71,9.96,11.2ZM398.95,112.09c0,4.93,2.66,9.46,7.69,9.46,5.44,0,7.69-4.46,7.69-9.46s-2.53-9.27-7.66-9.27-7.72,4.4-7.72,9.27Z"/>
      </g>
    </g>
  </g>
</svg>